PathFileType	3	(X/Y/Z)	D:\minhoCalibration\240510\subject2_KPNP\preferred\preferred16.trc
DataRate	CameraRate	NumFrames	NumMarkers	Units	OrigDataRate	OrigDataStartFrame	OrigNumFrames
200.0	200.0	15	10	mm	200.0	853	215	
Frame#	Time	Left_Ankle_Outer1			Left_Ankle_Inner1			Left_Knee_Outer1			Left_Knee_Inner1			Left_Wrist1			Right_Wrist1			Right_Knee_Inner1			Right_Knee_Outer1			Right_Ankle_Inner1			Right_Ankle_Outer1			
		X1	Y1	Z1	X2	Y2	Z2	X3	Y3	Z3	X4	Y4	Z4	X5	Y5	Z5	X6	Y6	Z6	X7	Y7	Z7	X8	Y8	Z8	X9	Y9	Z9	X10	Y10	Z10	
853	4.255	-690.67639	116.72904	-749.74377	-706.53448	117.91206	-695.13776	-504.78168	535.38617	-711.52344	-579.82361	514.87231	-639.17853	-642.63171	945.00812	-828.66309	-966.91205	970.42981	-926.51959	-958.79034	460.3277	-941.61938	-1022.7899	498.39914	-997.79572	-933.42694	92.051674	-1115.2856	-1012.9025	111.64317	-1173.9491
854	4.26	-693.59253	113.77104	-744.63696	-708.53864	115.30247	-689.9104	-504.90845	531.52808	-712.1441	-579.03125	512.23914	-638.53802	-640.18457	943.29071	-827.43378	-964.57172	969.58514	-921.33661	-959.50946	459.42441	-934.83136	-1022.805	498.233	-994.45093	-933.91766	93.235397	-1113.9185	-1012.3451	113.23945	-1174.2552
855	4.265	-696.58319	111.06269	-739.98834	-710.58704	112.77544	-684.94458	-505.05103	527.63379	-712.54041	-578.50574	509.42731	-637.81628	-637.68188	941.57684	-826.20673	-963.13062	968.40924	-915.72583	-959.92175	457.32761	-933.229	-1023.898	496.82483	-990.7179	-933.80005	93.487312	-1113.3881	-1012.6993	113.23581	-1172.3569
856	4.27	-699.56659	108.30907	-735.93744	-712.68457	110.12009	-680.82727	-505.19775	523.68549	-712.57935	-578.20032	506.5369	-637.11829	-634.89349	939.88867	-825.06793	-961.45081	967.56403	-910.63544	-960.62579	457.29745	-930.72583	-1024.7386	496.79037	-985.72003	-933.90198	94.136658	-1112.6915	-1012.3685	114.42855	-1171.7294
857	4.275	-702.14441	105.68447	-733.15479	-714.47888	107.34327	-677.81647	-505.3063	519.84943	-712.15277	-578.07123	503.60571	-636.34698	-632.42242	938.0899	-823.83167	-960.36237	966.84839	-905.78326	-950.79114	459.85397	-927.79419	-1025.8025	496.02789	-981.58032	-933.29742	94.625	-1112.1702	-1011.9689	116.29597	-1171.6267
858	4.28	-703.9848	102.83613	-731.19037	-716.2641	104.6958	-675.8009	-505.33176	516.19812	-711.44098	-578.10577	500.78271	-635.52838	-629.53473	936.37555	-822.73096	-958.51227	966.00482	-899.31152	-961.52405	454.28494	-919.06921	-1026.5162	495.8689	-976.31201	-933.42639	95.592628	-1111.3009	-1011.8877	116.84636	-1169.8413
859	4.285	-705.59851	100.09584	-730.37921	-717.78467	101.70618	-674.87683	-505.67264	512.63574	-710.41418	-578.29749	498.02255	-634.75806	-626.83978	934.65179	-821.55957	-956.69434	965.34357	-893.69275	-964.13879	453.42752	-915.04779	-1027.2427	495.56485	-971.74323	-933.63654	97.083344	-1109.7559	-1011.2891	119.41699	-1169.7887
860	4.29	-706.60071	97.047501	-730.38129	-719.12732	98.543816	-674.84772	-506.30457	509.2876	-709.08704	-578.60907	495.32535	-633.89935	-623.9762	932.96497	-820.38361	-954.71844	964.42871	-887.79822	-964.82538	453.10477	-911.70758	-1028.5297	495.25137	-966.25342	-934.68744	98.757698	-1108.3256	-1011.037	121.33489	-1168.7947
861	4.295	-707.12927	93.733627	-731.17627	-720.30365	95.327309	-675.63977	-506.9248	506.39325	-707.62518	-579.12531	492.75897	-633.00543	-621.00751	931.38776	-819.18158	-952.60242	963.83228	-881.63507	-966.19977	452.20752	-906.74615	-1030.0338	495.28964	-960.41718	-933.76324	100.38549	-1107.4198	-1011.237	123.6291	-1167.3173
862	4.3	-707.44739	90.413574	-732.72229	-721.58057	92.330444	-676.99463	-507.41757	503.79999	-706.09558	-579.76733	490.16016	-632.0625	-617.90186	929.94165	-817.90057	-950.35242	963.07617	-875.57373	-967.53973	451.16577	-899.93317	-1031.9341	495.61844	-954.2771	-933.54535	102.01064	-1106.7037	-1011.3156	126.35052	-1166.1453
863	4.305	-708.02509	87.891739	-734.35541	-723.09314	90.002579	-678.57092	-507.5159	501.5188	-704.58179	-580.67847	487.71948	-631.01477	-614.57599	928.92596	-816.76581	-948.07745	962.43756	-869.26678	-969.9068	450.9079	-894.94464	-1033.7343	495.88602	-947.86127	-933.61987	104.57558	-1105.5287	-1011.9286	129.46161	-1164.2869
864	4.31	-709.11975	85.719589	-735.04004	-724.66779	88.807785	-679.74445	-506.77573	499.34076	-703.01117	-581.4187	485.28772	-630.01135	-611.18658	927.76886	-815.6347	-945.54413	961.67926	-862.6394	-972.04602	450.48621	-887.82477	-1035.8938	496.36264	-940.69275	-934.45209	107.35233	-1103.8844	-1012.4745	133.28021	-1162.6348
865	4.315	-709.8385	85.719765	-736.34613	-726.03949	88.56942	-680.70599	-505.25833	497.56848	-700.95093	-581.62683	483.26651	-628.90747	-607.93146	927.06372	-814.18335	-943.02435	961.47949	-856.27118	-974.5379	450.20786	-880.79352	-1039.5239	496.6192	-931.48706	-935.06323	110.79624	-1102.1179	-1013.3353	137.09503	-1160.2095
866	4.32	-710.16956	86.146858	-736.55585	-726.78687	89.04509	-680.79944	-502.88959	496.43466	-698.44611	-580.97498	481.96249	-627.74115	-604.30872	926.61169	-813.36627	-940.43842	961.36279	-849.79419	-977.14655	450.11017	-872.86285	-1041.7238	497.72928	-923.95435	-936.74835	115.1949	-1099.1545	-1014.3948	141.78079	-1157.4924
867	4.325	-709.35425	86.716141	-736.4668	-726.17664	88.988327	-681.09344	-500.40018	495.81134	-695.33087	-579.63806	481.39841	-626.41718	-601.71466	926.55072	-811.04889	-937.74274	961.54541	-843.26611	-980.25787	450.43689	-864.39252	-1045.0599	499.43933	-914.12219	-936.99829	120.53448	-1096.7388	-1015.4905	147.09329	-1154.3469
